<svg xmlns="http://www.w3.org/2000/svg" width="893" height="558" fill="none">
  <path fill="#000" fill-opacity=".4" d="M.1 522.8h155.7c-.9-3.2-1-5.5-2-7.3a88.4 88.4 0 0 1-10.5-46c.5-82 1-163.9 2-245.8.7-48.8 2.5-97.6 3.8-146.4l.3-6.3c2.4-23.5 12.2-32.7 35.9-32.6 6.1 0 10-1.1 13.4-7 6.5-11 20.5-11.2 28.5-.8a14 14 0 0 0 13.2 6c13.4-.6 26.8-.7 40.2-.8 3.6 0 5.5-.9 7-4.4 3.4-8.2 9-14.4 18.6-14.7 9.6-.4 15.6 5.4 19.5 13.3 1.9 3.8 4.2 5 8.2 4.9a878 878 0 0 1 36.5-.5c4.2 0 6.4-1 7.4-5.4.8-3.4 2.4-6.8 4.5-9.5 7.6-10 20.5-10.2 28.8-.9 1.2 1.4 2.7 2.9 3.2 4.6 2.9 9.8 9.7 11 18.7 10.2 10.8-.9 21.8-.6 32.7-.4 4.4 0 7.3-.7 7.6-5.7 0-.8.4-1.6.6-2.4 3.1-8.6 7.8-15.7 17.8-16.5 9.4-.8 16 5 18.9 13 3.5 9.8 9.6 11.3 19 10.8 14.3-.9 28.8-.2 43.4-.2.8-5.6 1.1-10.2 2.1-14.6 2.1-9.2 7.7-15.4 17.2-17 9.5-1.8 16.2 3 20.6 11 2.7 4.7 4.9 9.7 6.7 14.8 1.3 3.6 3 4.7 6.8 4.7 23.5-.3 47-.7 70.4-.3 17.5.3 27.2 9.8 29.1 27.4.5 4.6 1.6 7 6.5 8.2 9.3 2.3 14.7 9.8 15.1 20.7.7 17.2.7 34.4 1 51.5 1.3 49.9 1 99.8 4.3 149.5 4.4 66.9 11.7 133.5 17.8 200.3L773 516h119.7l.3 2.2c-2.6.3-5.2 1-7.8 1-35.6 0-71.2.2-106.8.1-4.7 0-7 1.3-8.4 6a22 22 0 0 1-18.7 15.6c-7.8 1.1-15.9 1.1-23.8 1.2-85 1-170 .9-255 3.4-80.9 2.3-161.6 7.5-242.4 11.1-12.5.6-25.1.4-37.6-.7-6.9-.6-13.9-3-20.3-5.8a22.3 22.3 0 0 1-13.8-19c-.5-4.8-2.4-6-7.1-6-42.5.3-85 .4-127.6.4H0l.1-2.8ZM710.2 170l-560 12.2c-.2 2-.4 4.3-.4 6.6-1.3 64.1-2.7 128.2-3.6 192.3-.5 28.5.2 57 0 85.5 0 6 2.2 7.9 8.3 7.4 9.2-.8 18.4-.7 27.6-.8 103.3-1.8 206.5-2.9 309.7-5.6 69.5-1.8 139-5.8 208.4-8.8a26 26 0 0 0 3.7-.6l6.3-288.2ZM427 57.2c0 8 .2 15.4 0 22.6a63.8 63.8 0 0 1-14.8 42.4c-6.9 7.7-14.3 7.4-20.6-.8a38 38 0 0 1-6-11c-2.6-8.3-4.9-16.8-6.6-25.4-1.6-8.4-2.3-17-3.4-25.1H335l.6 12.2c.5 18.3-3 35.5-15.3 49.8-9.6 11.1-20.7 10.3-27-2.8-4-8.6-6.4-18.1-8.2-27.5-2-9.6-2.2-19.4-3.2-28.4h-39.7c0 9.2.3 17.2 0 25-.4 11.5-3 22.5-9 32.5-9 14.9-22.3 15.1-31.1 0a64.7 64.7 0 0 1-7.5-20.5c-2.1-11.2-2.7-22.8-4-34.2-22.4-4.5-36.7 5.1-38 27.5-1.5 27.1-1.6 54.4-2.3 81.6 0 .8.4 1.5 1.1 4l561.3-12c.8-25.9 1.5-50.1 2-74.4a43 43 0 0 0-.9-8.7c-3.6-20-14.7-29.6-34.8-30-16.5-.2-33 .3-49.6.5-.8 0-1.6.5-1.5.4 0 8.9.3 17.2 0 25.6a57 57 0 0 1-12.2 36.8c-7.5 8.8-17 8.5-23.7-.8a42 42 0 0 1-6.5-12.8c-3-11-5.7-22.3-7.7-33.6C575 55 575.4 55 560.2 54.9h-38.4c.5 9.3 1.2 17.2 1.3 25.1 0 13-2 25.5-9.2 36.7-8.7 13.3-20 13.7-27.9 0-4.6-8-7.6-17.2-9.8-26.3-2.7-10.9-3.7-22.2-5.4-33.2h-43.9ZM706.7 461a9025.9 9025.9 0 0 1-561.4 15.2c3 11.2 4.6 20.6 7.8 29.5 3.4 9.3 10.4 16 20.3 18s19.8 4.2 29.7 4.4c31.4.7 62.8.6 94.2.5 108.7-.5 217.4-1.2 326-1.8 13.2 0 26.5.4 39.5-1 17.8-2.1 32.3-10.7 37.9-28.6 3.3-11 3.9-22.9 6-36.2Zm24.1 11.3-2 1.1v6.6c-.3 6.2-.2 12.6-1 18.7a33 33 0 0 1-27.6 29.7 131 131 0 0 1-28 2.6c-46.7-.5-93.4-2.2-140-2-100.6.6-201 2.1-301.5 3-21.4.3-42.7-.5-63.5-6.5-6.1-1.8-7.4-.3-5.8 5.8 3.4 13.7 14 19.2 26.4 20.6 14.3 1.7 28.8 2.3 43.2 1.6 41.4-2 82.7-5.3 124.1-7.3a6375 6375 0 0 1 383.7-7 53 53 0 0 0 11.2-1c15.6-3.2 24-19.6 14.8-31.3-10-12.6-22.6-23.2-34-34.6Zm-5-302.7c-.3 2-.5 3-.5 4-.5 45.7-1.7 91.3-1.1 137 .6 50.9 3 101.8 4.6 152.6 0 1.9 1 4.2 2.3 5.5l37.5 35c-12.2-111-23.4-222.2-22.7-334.1h-20.2Zm-2.8 1.1c-8.2-3-8 1.6-8.2 6-1.8 59.2-3.9 118.4-5.4 177.6-.8 32.9-.7 65.7-.9 98.6 0 2 .7 5.3 2 5.8 4.6 2 9.6 3 16 4.7-6.7-98-6.9-195.3-3.5-292.6ZM285.8 60.2c.5 21.2 1.6 39.9 10.3 57.2.8 1.6 2 3.2 3.2 4.5 4.8 5.3 9.3 5.7 14.8 1.3 2-1.7 4-3.7 5.6-5.9 11.3-15.8 13.8-33.6 12.4-52.5-.3-3-1.6-4.7-5.2-4.6-13.3.2-26.7 0-41.1 0Zm189-4.7c1.7 20 3.4 38 11.2 54.8 1.5 3.2 3.5 6.3 5.9 8.8 5.2 5.6 10.7 5.8 15.6 0 3.4-4 6.3-9 8.1-13.9 5.5-15 5-30.4 2.6-45.8-.2-1.5-2.4-3.7-3.7-3.8-12.9-.3-25.8-.1-39.8-.1Zm151.7 19.1-1.5-.5c-.5-5.2-.7-10.4-1.7-15.5-.3-1.6-2.7-3.9-4.1-3.9-12.1-.2-24.3-.2-36.4.2-1.2 0-3.6 3-3.4 4.1 3 15.1 6 30.3 9.9 45.2 1.1 4.5 4 8.7 7 12.3 4.6 5.5 10.3 5.5 15.2.4a22 22 0 0 0 5.7-8.2c3.4-11.2 6.3-22.7 9.3-34ZM216.8 63.4v1c-5.9 0-11.7-.1-17.6.2-1.5.1-4.1 2-4 3 .3 16 .2 32 7.2 46.9 3.1 6.7 7.1 13.9 15.5 13.7 8.2-.2 11.8-7.4 14.7-14a81.2 81.2 0 0 0 5.3-46.7c-.2-1.6-3-3.8-4.8-4-5.4-.4-10.9-.1-16.3-.1Zm185-6v1H384c-3.3 0-5 1-4.7 4.7 1.5 17 3.8 33.8 10.8 49.5 2.3 5.2 4.7 11.2 11.3 11.5 6.8.4 10-5.5 12.8-10.5a79 79 0 0 0 8.5-52.3c-.2-1.5-3-3.6-4.8-3.7-5.4-.5-10.8-.2-16.3-.2Zm223.8-6.6c14.8 0 28.8.4 42.8-.1 15.5-.5 30.2.1 41.2 13.4 3 3.6 12.9 1.7 13.4-1.7a25.6 25.6 0 0 0-20.4-27.8c-4.3-.8-8.7-1.2-13.1-1.1-20.1.1-40.2.5-60.3.9h-6.8l3.2 16.4Zm119.3 115c.2-2.4.4-3.9.4-5.3-.2-22.8-.3-45.6-.7-68.5 0-4.3-.9-8.8-2.3-12.8-2.5-7-8.4-10.7-16-10.2v96.8h18.6Zm-71.6 360.8 1.2 2.5c9-1.4 18-2.1 26.7-4.3a29.4 29.4 0 0 0 23.4-26.4c1.2-8.6 1-17.5.9-26.2 0-1.9-1.6-4.6-3.3-5.5-4-2.1-8.5-3.5-13.8-5.5 0 29-2.8 55.2-35.1 65.4ZM516.8 35.5c1 4 2 7.2 2.4 10.5.6 5 3.1 6.3 8 6.1 14-.4 28-.2 42-.3 1.7 0 3.5-.3 5.6-.5l-1.3-15.8h-56.7Zm-283 4.4c2.1 6.3 3.5 11.4 5.6 16a7.2 7.2 0 0 0 5.4 3.6c11.3 0 22.5-.4 33.8-1 1.5-.2 3.7-2 4-3.4 1.2-5 1.7-10.1 2.4-15.2h-51.3ZM576 30.7h42.6C614.7 23 612 16.1 608 10.2c-7.4-10.4-21.5-9.3-27 2.3-2.7 5.4-3.3 11.8-5 18.2ZM421.8 37c.8 16 1.9 17 16.5 16.7h32.5V36.9h-49Zm-136 20h45c-1.6-6-2.6-11-4.3-15.6-.5-1.3-3-2.7-4.6-2.8-9.8 0-19.6.2-29.4.6-1.5.1-4 1.8-4.3 3.1-1.2 5-1.7 10.1-2.4 14.8Zm44-18.6 4.7 17.8c8.9 0 17.2.3 25.5 0 18.9-.8 15.5 3 15.6-16.6 0-.4-.3-.8-.5-1.2h-45.4Zm-92.8 22c-2.2-6.7-3.7-12.1-5.8-17.2-.6-1.4-3.2-2.6-5-2.6-8.3 0-16.6.2-25 .7-1.5 0-4 1.8-4.2 3-1.1 5.3-1.6 10.7-2.3 16.1H237Zm-83.8 11.5c6.8-3 13.5-6.5 20.6-8.8 4.2-1.4 9-.6 13.6-1.4 1.5-.3 3.7-2 4-3.3 1-5.3 1.4-10.7 2-16-25.7-4.2-41.4 8-40.2 29.5ZM619 35h-41l-.6 1.2c-1 15.6-.9 15.6 14.3 15.5h30.5A9584 9584 0 0 0 619 35ZM421.9 54c-1.4-5.2-2-9.4-3.6-13.2-.6-1.6-3-3.5-4.6-3.5-10-.2-20 0-30 .3-1.5 0-4 1.8-4.2 3-.6 4-.6 8-.3 11.9 0 1 2 2.8 3 2.8 12.9-.2 25.7-.8 39.7-1.3Zm53.2-2h42c-1.5-5.3-2.5-9.7-3.8-14-.3-1-1.7-2.2-2.6-2.2h-35.6V52Zm35.8-19.8c-2.3-12.6-10.4-21-19.1-20.4-8.4.6-15.3 9.7-15.5 20.4h34.6Zm201.8 37c6.6 15.5 6 30.6 5.1 45.7-.9 15.3-1.5 30.6-2.1 45.8-.2 3-.6 6.7 4 5.4 1.3-.3 2.6-3.4 2.6-5.2.3-20 .4-39.8.4-59.7V69h-10Zm-332.1-36h35c-5.3-13.5-11.8-19-20.4-17.9-8 1.1-13.6 7.9-14.6 18Zm-57 1.7c-3.1-10.4-9.7-15.5-18.1-14.8-7.2.6-13.7 7.2-15 14.8h33.1Zm-96.2 2.4c-4.4-8.4-9.6-11.6-16.5-10.5-6.1 1-9.5 4.9-11.6 10.5h28Z"/>
</svg>
