<svg xmlns="http://www.w3.org/2000/svg" width="216" height="28" fill="none">
  <path fill="#fff" d="M13.2 28a14 14 0 0 1-5.1-1 14.1 14.1 0 0 1-8-13 14.4 14.4 0 0 1 3.8-9.9 12 12 0 0 1 4.1-3 12 12 0 0 1 11.1.4c1.8 1 3.3 2.4 4.5 4l-2.9 1.6a9.8 9.8 0 0 0-7.6-3.9 9 9 0 0 0-4 .9A10 10 0 0 0 6 6.4 11 11 0 0 0 3.2 14a11.2 11.2 0 0 0 3 7.6c.8 1 1.9 1.8 3.1 2.3a9 9 0 0 0 3.9.9 9 9 0 0 0 4.3-1.1c1.3-.7 2.4-1.7 3.3-2.8l2.9 1.5A13.3 13.3 0 0 1 13.2 28ZM29.5 5c-.5 0-.9 0-1.2-.4-.4-.4-.6-.8-.6-1.3s.2-.9.6-1.2c.3-.4.7-.5 1.2-.5a1.8 1.8 0 0 1 1.8 1.7c0 .5-.2 1-.5 1.3-.3.3-.8.5-1.3.5ZM28 8.3h3v19.3h-3V8.2Zm17.6 3.2h-4.3v16H38v-16h-3.2V8.2H38v-6h3.2v6h4.4v3.3Zm18.8-3.3h3.2v19.3h-3.2l-.1-3.3A6.7 6.7 0 0 1 58 28c-1.5 0-2.8-.3-4-.8a10.4 10.4 0 0 1-6.2-9.5 9.8 9.8 0 0 1 2.9-7 10 10 0 0 1 7-3c1.5 0 2.8.3 4 1 1.1.8 2 1.7 2.7 2.8V8.2ZM58 25a5.7 5.7 0 0 0 5.4-3.5 8.2 8.2 0 0 0 0-7c-.5-1.2-1.2-2-2.2-2.6-.9-.6-2-1-3.2-1a7 7 0 0 0-6.8 7c0 1.4.3 2.5 1 3.6A6.7 6.7 0 0 0 58 25Zm22.6 2.5 5.2-27h2.5l7.2 19.2L102.7.5h2.5l5.2 27h-3.3l-3.7-19.6L96.6 26h-2.1L87.7 8l-3.8 19.5h-3.3Zm49.8-19.3h3.2v19.3h-3.2l-.2-3.3c-.6 1.2-1.4 2-2.4 2.8-1 .6-2.3 1-3.8 1s-2.7-.3-4-.8a10.4 10.4 0 0 1-6.2-9.5 9.8 9.8 0 0 1 3-7 10 10 0 0 1 7-3c1.5 0 2.8.3 4 1 1 .8 2 1.7 2.7 2.8l-.1-3.3ZM123.9 25a5.7 5.7 0 0 0 5.5-3.5c.5-1 .7-2.3.7-3.5 0-1.3-.2-2.5-.7-3.6a6.1 6.1 0 0 0-5.5-3.5 7 7 0 0 0-6.8 7 7.1 7.1 0 0 0 3.4 6 6 6 0 0 0 3.5 1Zm19.4 2.9a9.9 9.9 0 0 1-5.6-2 5.5 5.5 0 0 1-1.6-2.2l2.7-1.2c.2.5.6.9 1 1.3a6.2 6.2 0 0 0 5.7.9 3 3 0 0 0 1.5-1c.4-.4.6-1 .6-1.5 0-.7-.2-1.2-.6-1.5a5 5 0 0 0-1.6-.9l-2-.6c-1.3-.3-2.5-.7-3.5-1.2s-1.9-1-2.4-1.8c-.6-.7-1-1.7-1-2.8a5 5 0 0 1 1-3c.7-1 1.6-1.6 2.6-2.1 1.1-.5 2.3-.7 3.5-.7a9 9 0 0 1 4.2 1c1.3.6 2.2 1.5 2.9 2.7l-2.6 1.5a3 3 0 0 0-1-1.2c-.5-.4-1-.6-1.5-.8a5.8 5.8 0 0 0-3.8 0c-.7.1-1.2.5-1.6 1-.4.3-.6.9-.6 1.6 0 .6.2 1 .6 1.4.4.4 1 .6 1.6.8a78.9 78.9 0 0 1 5.5 2c1 .5 1.8 1.1 2.4 1.8a4 4 0 0 1 1 2.8c0 1.1-.4 2.2-1.1 3-.7 1-1.6 1.6-2.8 2-1 .5-2.3.7-3.5.7Zm20.5-16.4h-4.3v16h-3.3v-16H153V8.2h3.3v-6h3.2v6h4.3v3.3ZM175.7 28c-1.8 0-3.4-.5-4.8-1.4A10 10 0 0 1 166 18a10.4 10.4 0 0 1 2.8-7.2 8.9 8.9 0 0 1 6.8-3 9 9 0 0 1 7 3.3c.9 1 1.5 2.2 2 3.6.4 1.4.6 2.9.4 4.4h-15.6c.2 1.1.5 2.1 1 3 .7.8 1.4 1.5 2.2 2a5.9 5.9 0 0 0 6-.1c1-.6 1.8-1.4 2.3-2.5l3.3.8a10 10 0 0 1-3.5 4.2 8.8 8.8 0 0 1-5.1 1.6Zm-6.3-11.5H182c-.1-1.1-.4-2-1-3a6.9 6.9 0 0 0-2.3-2.1c-.9-.6-1.9-.8-3-.8-1 0-2 .2-2.9.8a7 7 0 0 0-2.2 2 7 7 0 0 0-1 3Zm19.2 11V8.2h3.3v2.4a7.4 7.4 0 0 1 8-2.6l-1.3 3.2a5 5 0 0 0-4.1.5 5.3 5.3 0 0 0-2.7 4.5v11.3h-3.2Z"/>
  <path fill="#EB1E23" d="M211.4 28c2.3 0 4.2-2 4.2-4.3s-1.9-4.2-4.2-4.2a4.2 4.2 0 0 0-4.2 4.2c0 2.3 1.9 4.2 4.2 4.2Z"/>
</svg>
