<svg xmlns="http://www.w3.org/2000/svg" fill="none" viewBox="0 0 55 55">
  <path fill="#000" d="M14 12.3c.6-1.8-.5-4.4 2.3-4.3 2.5.1 1.8 2.4 2 4.1h13c.5-1.6-.4-4.1 2.3-4.1 2.6 0 1.7 2.4 2.2 4.3h4.9c2.7 0 4 1.3 4 4v12.1c0 .6 0 1.1-.5 1.7-1.2-2.2-.3-4.8-.9-7.3h-37v20.8c0 2.6.5 3.2 3 3.2h27l.2.5c-.5.3-1 .7-1.4.7H8.6C6.2 48 5 46.6 5 44V16c0-2.6 1.2-3.8 3.8-3.8H14Zm-7.7 9h37.2c0-2 .1-4-.1-5.9-.1-.7-1.1-1.7-1.8-1.8-2-.2-3.9 0-5.8 0-.6 1.6.5 3.9-2 4-3 .2-2-2.5-2.5-4H18.4c-.4 1.6.5 4-2.1 4-2.9.1-1.7-2.5-2.3-4-2 0-3.9-.3-5.7 0-.8.1-1.8 1.2-1.9 2-.3 1.8 0 3.7 0 5.8ZM17 13v-2.6c0-.4-.5-.7-.8-1-.3.2-.8.5-.8.8v5.5c0 .3.5.5.8.8.3-.3.7-.5.8-.8V13Zm17.4 0v-2.8c0-.3-.6-.6-.8-.8-.3.2-.7.5-.7.8v5.5c0 .3.4.5.7.8.3-.3.7-.5.8-.9V13Z"/>
  <path fill="#000" d="M51 39.8a8 8 0 1 1-16 .2 8 8 0 1 1 16-.2ZM43 33a7 7 0 0 0-6.9 6.8 7 7 0 0 0 7 6.9c3.7 0 6.6-3 6.7-6.8 0-3.9-3-7-6.8-7ZM9.9 29l3-.4.6-3h.6v4H9.9V29Zm8.7.1 3-.6.5-3h.9c0 1.4 0 2.8.2 4.3h-4.4l-.2-.7Zm11.4-.6.7-3 .6.1v4.1h-4.1l-.1-.6 3-.6Zm9.6 1.3h-4l-.1-.7 3-.6.5-2.9h.6v4.2Zm-25.4 2.9v4H9.9v-.8l3-.3.6-3 .7.1Zm8.7-.1.2 4h-4.4V36l3-.3c0-1 .2-2 .4-3h.8Zm7.1 3 .6-3h.7v4H27V36l3-.3Zm-8.3 6.8.4-3h.9c0 1.3 0 2.7.2 4.2h-4.4l-.1-.5 3-.7ZM14 43.6h-4v-.5l3-.6c0-1 .3-2 .5-3h.6v4.1Zm17.3-4.1v4h-4.1V43l2.9-.4.5-3h.8Z"/>
  <path fill="#000" d="m41.5 42.3-2.2-2.4.5-.6L42 41l4-3.6.6.6-5.2 4.3Z"/>
</svg>
