<svg xmlns="http://www.w3.org/2000/svg" fill="none" viewBox="0 0 55 55">
  <path fill="#000" d="M38.9 31.5v5.9c-1.4-.9-2.6-1.3-3.5-2.1a16 16 0 0 0-12.8-3.9c-2.5.3-5 .1-7.5 0-3 0-4.3-1-4.3-4v-9.6c0-2.6 1.2-3.8 4-3.8h32.6c2.3 0 3.5 1.2 3.6 3.5V28c0 2.2-1.4 3.4-3.6 3.5h-8.5Zm-1-1h9c2 0 3.1-.9 3-3v-9c0-3-.5-3.6-3.5-3.6H14.9c-2.1 0-3 1-3 3v9.2c0 2.7.6 3.3 3.3 3.4h12.4c1.4.1 2.9.6 4.2 1.3 2 1 3.8 2.4 6.2 3.9v-5.2Z"/>
  <path fill="#000" d="M17 35.1v5.3c2.9-1.8 5.1-3.9 7.8-4.8 2.6-.8 5.6-.4 8.5-.5v.6c-3 .4-6.1.3-8.8 1.3-2.9 1-5.3 3.1-8.2 5l-.3-5.9h-5c-5.5 0-6-.4-6-5.8V22c.1-2.2 1.4-3.2 4.5-3C5 20.4 6.1 23.4 6 26v6c0 2 .9 3 3 3h8Z"/>
</svg>
