<svg xmlns="http://www.w3.org/2000/svg" fill="none" viewBox="0 0 55 55">
  <g fill="#000">
    <path d="M34.3 42.1v3c.1 2-1 2.8-2.7 2.9H9.7C8 48 7 47 7 45.2V15.7c0-1.9.9-2.7 2.7-2.7h9l2.5-.1v-2.2c0-3 .6-3.7 3.6-3.7h14.4c1 .1 4.8 0 5.7.6 5.5 3.7 3.9 5.5 4 16 .3 4.7-.2 9.6-.3 14.5 0 3.2-.5 3.6-3.7 3.8h-8l-2.6.2ZM8 30.5v14.1c0 1.5.5 2.2 2 2.2h21.2c1.6 0 2-.6 2-2.1V16.2c0-1.7-.6-2.3-2.3-2.3H10.4c-1.8 0-2.5.8-2.4 2.5v14.1ZM34.5 41h10.7c1.8 0 2.5-.5 2.5-2.4V15.4h-4.3c-2.4-.1-3.2-.8-3.2-3.2V8H26c-3.9 0-4 .1-3.8 3.9l.3 1h7.6c3.8 0 4.1.4 4.1 4.1v2.4c3.7.2 7.1-.1 10.5.2v.9H34.5v2.9h10.3v.8H34.5v2.6c1.8 0 3.3.2 4.9.3v.7h-4.9v2.9h10.3v.8H34.5v2.9h10.3v.8H34.3v4.5l.2 1.2Zm7.4-32.4c-2 4.6.9 7.5 5.6 4.6-1.6-1.5-3.4-3-5.6-4.6Z"/>
    <path d="M11 27.4h19.3v.5H11.1v-.5ZM30.7 31a57.7 57.7 0 0 1-20.1 0h20Zm-19.6 3.7h19.3c-1.2 1-16.9 1.1-19.3 0ZM30.3 39H11v-.5h19.2v.5ZM11 18.3h17.3v.4H11v-.4Zm.1 23.7h10v.6h-10V42ZM21 22.5H11l.1-.6h10l-.1.6Z"/>
  </g>
</svg>
