<svg xmlns="http://www.w3.org/2000/svg" viewBox="0 0 32 32" fill="none">
  <path fill="currentColor"
    d="M16 2.9h6.5c1.5.1 2.4.4 3 .6a5 5 0 0 1 1.8 1.2c.5.6.9 1.1 1.2 1.9.2.5.4 1.4.5 3a112.8 112.8 0 0 1-.5 15.8 5 5 0 0 1-1.2 1.9c-.6.5-1.1.9-1.9 1.1-.5.3-1.4.5-3 .6a112.7 112.7 0 0 1-15.8-.6 5 5 0 0 1-1.9-1.1 5 5 0 0 1-1.2-1.9c-.2-.5-.4-1.4-.5-3a112.8 112.8 0 0 1 .5-15.8 5 5 0 0 1 1.2-1.9c.6-.5 1.1-.9 1.9-1.2C7 3.3 8 3 9.6 3l6.4-.1ZM16 0H9.4C7.7.3 6.5.5 5.5.9s-2 1-2.8 1.9A7 7 0 0 0 .8 5.6C.4 6.6.2 7.8.1 9.5a117.7 117.7 0 0 0 .7 17 9 9 0 0 0 1.9 3c.9.8 1.8 1.4 2.8 1.8 1 .4 2.2.6 3.9.7a117.3 117.3 0 0 0 17-.7c1.1-.4 2-1 2.9-1.9.9-.9 1.4-1.8 1.8-2.8.4-1 .7-2.2.8-3.9a117.3 117.3 0 0 0-.8-17c-.4-1.1-.9-2-1.8-3A7.8 7.8 0 0 0 26.5.9c-1-.4-2.2-.6-3.9-.7L16 0Z" />
  <path fill="currentColor"
    d="M16 7.8a8.2 8.2 0 1 0 0 16.4 8.2 8.2 0 0 0 0-16.4Zm0 13.5a5.3 5.3 0 1 1 0-10.6 5.3 5.3 0 0 1 0 10.6ZM26.5 7.5a2 2 0 1 1-3.9 0 2 2 0 0 1 3.9 0Z" />
</svg>