<svg xmlns="http://www.w3.org/2000/svg" fill="none" viewBox="0 0 55 55">
  <g fill="#000">
    <path d="M42.4 20.2c-2.3-.3-4.2-.1-6-.1l-27-.3c-2.5 0-3.4.7-3.3 3.1l.3 9c0 2.4 1.6 3 3.9 3.2 2.7.2 5.6.2 8.3.2 1.2 0 2.4 0 3.6.6-5 0-10 .2-14.9-.1-.8-.1-2.2-1.4-2.2-3.6.1-6.8-.1-13.6-.1-20.4 0-2.2 1.4-3.7 3.4-3.7h31c1.8 0 3 1.3 3 3.2v8.9Zm-18-6.2H40c.9 0 1-.6 1.3-1.7 0-1 .3-2.4-1-3-.5-.3-2.1-.3-2.7-.3h-28c-2 0-3.3.9-3.3 3 0 2.4 2 2 3.3 2h14.7Zm-.8 5h15.2c1.7 0 2.5-.6 2.5-2.3 0-1.1-1-1.8-1.7-1.8-10-.2-20.6-.1-30.7-.1-1.6 0-3 .4-2.9 2.4 0 2 1.7 1.7 3 1.7h14.6Z"/>
    <path d="M37.9 48c-7.3 0-13.5-5.8-13.5-12.5 0-7.2 6-13.2 13-13.2C45 22.3 51 28 51 35.3A13 13 0 0 1 37.9 48Zm11.7-12.7c0-6.4-5.5-12-12.1-12-6.3 0-11.8 5.5-11.9 12 0 6.2 5.2 11.5 11.7 11.6 6.8.1 12.3-5 12.3-11.6Z"/>
    <path d="m31 34 4.1 3.8c3.7-3.3 5.9-4.8 8.7-7.6l1 1-9 8.3c-.2.2-1 .2-1.2 0l-4.7-4.4 1.1-1.2Z"/>
  </g>
</svg>
