<svg xmlns="http://www.w3.org/2000/svg" fill="none" viewBox="0 0 55 55">
  <path fill="currentColor" d="m45.6 13.9-3.6-.2c-8.1-.3-16.2-.4-24.3-.1-3.7 0-7.4.3-11 .5-.5 0-.5.2-.5.6L6 30.8v6c0 1.5.8 2.4 2.2 2.4l13.3.6h.4c.5 0 .8.2.7.7 0 .5-.3.6-.7.6-2.1 0-4.2 0-6.3-.2-2.5 0-5-.2-7.4-.4-2 0-3.2-1.3-3.3-3.3v-.3A27801 27801 0 0 1 5 10.3 3 3 0 0 1 8 8h35.1c.4 0 .9 0 1.3.2 1.4.5 2.2 1.5 2.3 3l.4 10c0 .3 0 .8-.5.8-.6 0-.7-.4-.7-.9l-.3-6.7V14Z"/>
  <path fill="currentColor" d="M32.3 32.2h4.2c.7 0 1 .5 1 1.1-.1.5-.4.7-.9.7h-5.9c-.9 0-1.5-.6-1.5-1.6v-5.9c0-.5.4-1 .9-1s1 .5 1 1v4.3l.4-.5c2-2.1 4.3-3.8 7.2-4.4a9.9 9.9 0 0 1 12 7.8 14 14 0 0 1-.1 6.5A10.2 10.2 0 0 1 41 48c-3 .1-5.7-.5-8.1-2.3a9 9 0 0 1-2.4-2.9c-.4-.6-.3-1 .1-1.2.5-.3 1.1-.2 1.4.4 2 3.4 5 4.7 8.7 4.5a8.7 8.7 0 0 0 8.1-5.7 10 10 0 0 0-.6-9.1 8.2 8.2 0 0 0-9.3-4c-2.7.7-4.8 2.4-6.6 4.5Z"/>
</svg>
